<?xml version="1.0" encoding="UTF-8" standalone="no"?>
<svg
   xmlns:dc="http://purl.org/dc/elements/1.1/"
   xmlns:cc="http://creativecommons.org/ns#"
   xmlns:rdf="http://www.w3.org/1999/02/22-rdf-syntax-ns#"
   xmlns:svg="http://www.w3.org/2000/svg"
   xmlns="http://www.w3.org/2000/svg"
   xmlns:sodipodi="http://sodipodi.sourceforge.net/DTD/sodipodi-0.dtd"
   xmlns:inkscape="http://www.inkscape.org/namespaces/inkscape"
   width="210mm"
   height="297mm"
   viewBox="0 0 210 297"
   version="1.1"
   id="svg5067"
   inkscape:version="1.0.2 (e86c870879, 2021-01-15)"
   sodipodi:docname="here_is_the_way.svg">
  <defs
     id="defs5061" />
  <sodipodi:namedview
     id="base"
     pagecolor="#ffffff"
     bordercolor="#666666"
     borderopacity="1.0"
     inkscape:pageopacity="0.0"
     inkscape:pageshadow="2"
     inkscape:zoom="0.28351615"
     inkscape:cx="379.18439"
     inkscape:cy="1017.0302"
     inkscape:document-units="mm"
     inkscape:current-layer="layer1"
     inkscape:document-rotation="0"
     showgrid="false"
     inkscape:window-width="1920"
     inkscape:window-height="1015"
     inkscape:window-x="0"
     inkscape:window-y="0"
     inkscape:window-maximized="1" />
  <metadata
     id="metadata5064">
    <rdf:RDF>
      <cc:Work
         rdf:about="">
        <dc:format>image/svg+xml</dc:format>
        <dc:type
           rdf:resource="http://purl.org/dc/dcmitype/StillImage" />
        <dc:title></dc:title>
      </cc:Work>
    </rdf:RDF>
  </metadata>
  <g
     inkscape:label="Layer 1"
     inkscape:groupmode="layer"
     id="layer1">
    <g
       id="g17509"
       inkscape:transform-center-x="98.19805"
       inkscape:transform-center-y="17.089966"
       transform="translate(-36.526954,53.549135)">
      <path
         style="fill:#333333;fill-opacity:1;stroke-width:0.264583"
         d="m 39.855579,-35.862916 c -0.0617,-1.78263 -0.0672,-3.33044 -0.0122,-3.43958 0.0549,-0.10914 1.51936,-0.19844 3.25425,-0.19844 3.69427,0 3.39227,0.33145 3.49566,-3.83646 l 0.0656,-2.64583 h 0.79375 0.79375 l -0.0927,1.90543 c -0.051,1.04799 -0.0101,2.5065 0.091,3.24115 l 0.18371,1.33571 h 3.54704 3.54705 v 3.43959 c 0,3.24346 -0.0297,3.43958 -0.52022,3.43958 -0.48031,0 -0.52597,-0.21817 -0.59531,-2.84427 l -0.0751,-2.84427 -4.23333,-0.13229 c -2.32833,-0.0728 -5.29259,-0.0728 -6.58724,0 l -2.35391,0.13229 0.0534,2.38768 c 0.06,2.68009 -0.0848,3.30086 -0.76999,3.30086 -0.42242,0 -0.48498,-0.34653 -0.58515,-3.24115 z"
         id="path17511" />
    </g>
  </g>
</svg>
