<?xml version="1.0" encoding="UTF-8" standalone="no"?>
<svg
   xmlns:dc="http://purl.org/dc/elements/1.1/"
   xmlns:cc="http://creativecommons.org/ns#"
   xmlns:rdf="http://www.w3.org/1999/02/22-rdf-syntax-ns#"
   xmlns:svg="http://www.w3.org/2000/svg"
   xmlns="http://www.w3.org/2000/svg"
   xmlns:sodipodi="http://sodipodi.sourceforge.net/DTD/sodipodi-0.dtd"
   xmlns:inkscape="http://www.inkscape.org/namespaces/inkscape"
   width="179.12291mm"
   height="125.14793mm"
   viewBox="0 0 179.12291 125.14793"
   version="1.1"
   id="svg8"
   inkscape:version="1.0.2 (e86c870879, 2021-01-15)"
   sodipodi:docname="safe_camp.svg">
  <defs
     id="defs2" />
  <sodipodi:namedview
     id="base"
     pagecolor="#ffffff"
     bordercolor="#666666"
     borderopacity="1.0"
     inkscape:pageopacity="0.0"
     inkscape:pageshadow="2"
     inkscape:zoom="0.45932232"
     inkscape:cx="150.47059"
     inkscape:cy="558.04801"
     inkscape:document-units="mm"
     inkscape:current-layer="layer1"
     inkscape:document-rotation="0"
     showgrid="false"
     inkscape:window-width="1920"
     inkscape:window-height="1015"
     inkscape:window-x="0"
     inkscape:window-y="0"
     inkscape:window-maximized="1" />
  <metadata
     id="metadata5">
    <rdf:RDF>
      <cc:Work
         rdf:about="">
        <dc:format>image/svg+xml</dc:format>
        <dc:type
           rdf:resource="http://purl.org/dc/dcmitype/StillImage" />
        <dc:title />
      </cc:Work>
    </rdf:RDF>
  </metadata>
  <g
     inkscape:label="Layer 1"
     inkscape:groupmode="layer"
     id="layer1"
     transform="translate(-0.64194317,-0.51646288)">
    <path
       style="fill:#000000;stroke-width:0.264583"
       d="M 0.64194317,63.090429 V 0.51646288 H 90.203403 179.76485 V 63.090429 125.66439 H 90.203403 0.64194317 Z M 34.068163,116.28983 c 0.0841,-0.21907 0.56327,-0.56979 1.0649,-0.77939 0.50163,-0.20959 0.99113,-0.6302 1.08776,-0.93468 0.0966,-0.30448 0.43554,-0.69159 0.7531,-0.86024 0.57227,-0.30391 1.85899,-1.32494 3.97697,-3.15578 0.60409,-0.5222 1.48545,-1.17303 1.95858,-1.44631 0.47313,-0.27328 0.92159,-0.69017 0.99657,-0.92643 0.075,-0.23625 0.44207,-0.59318 0.81574,-0.79316 0.37367,-0.19998 0.91352,-0.6924 1.19967,-1.09426 0.28615,-0.40186 1.02024,-0.96016 1.63132,-1.24068 1.25546,-0.57633 2.75921,-1.92897 3.08421,-2.77429 0.13555,-0.35258 0.6375,-0.6934 1.33502,-0.90646 0.7952,-0.24291 1.62452,-0.86433 2.87356,-2.153171 0.96567,-0.99645 2.13427,-2.00235 2.5969,-2.23534 0.46263,-0.23299 0.91308,-0.65024 1.00099,-0.92723 0.0879,-0.27699 0.52229,-0.65375 0.96529,-0.83724 0.44299,-0.1835 0.99249,-0.61911 1.22111,-0.96802 0.22862,-0.34892 0.74674,-0.8056 1.15138,-1.01484 0.40464,-0.20925 0.81515,-0.63075 0.91225,-0.93668 0.0971,-0.30592 0.58272,-0.72593 1.07916,-0.93336 0.79047,-0.33028 2.41024,-1.61514 4.60264,-3.651 0.3638,-0.33782 0.87215,-0.68708 1.12968,-0.77612 0.25752,-0.089 0.71576,-0.58146 1.01832,-1.09425 0.30255,-0.51279 0.72609,-0.93235 0.94119,-0.93235 0.2151,0 0.74079,-0.34969 1.16819,-0.77709 0.4274,-0.4274 1.01046,-0.85116 1.29569,-0.94169 0.28522,-0.0905 0.76428,-0.50964 1.06457,-0.93136 0.30029,-0.42171 1.00353,-1.02392 1.56277,-1.33822 0.55922,-0.3143 1.64588,-1.28616 2.41478,-2.15967 0.7689,-0.87352 1.78416,-1.74956 2.25613,-1.94676 0.47196,-0.1972 1.11192,-0.6812 1.42212,-1.07556 0.31019,-0.39435 0.91651,-0.93138 1.34736,-1.1934 0.43085,-0.26201 0.78336,-0.63301 0.78336,-0.82443 0,-0.19142 0.52571,-0.60345 1.16826,-0.91562 0.64254,-0.31217 1.24587,-0.81215 1.34074,-1.11106 0.0949,-0.29891 0.32568,-0.54347 0.5129,-0.54347 0.18723,0 0.65559,-0.2921 1.04081,-0.64911 0.38522,-0.357 1.13816,-0.76998 1.67321,-0.91771 0.83086,-0.22941 1.02231,-0.19793 1.31207,0.21577 0.1866,0.2664 0.69691,0.63251 1.13403,0.81357 0.43712,0.18106 1.03316,0.73325 1.32453,1.22709 0.29138,0.49384 0.6624,0.89789 0.8245,0.89789 0.28198,0 1.09618,0.63522 3.97981,3.10492 0.71959,0.61629 1.604027,1.19475 1.965407,1.28545 0.36138,0.0907 0.65706,0.3181 0.65706,0.50533 0,0.18723 0.31224,0.62081 0.69385,0.96351 0.38162,0.34269 0.95983,0.8899 1.28491,1.21601 0.32507,0.32611 1.0162,0.77057 1.53585,0.98769 0.51964,0.21712 1.02003,0.63181 1.11198,0.92153 0.0919,0.28971 0.48757,0.76985 0.87915,1.06697 1.04789,0.79511 1.87066,1.46293 3.42678,2.78146 0.76554,0.64866 1.76596,1.37282 2.22317,1.60925 0.4572,0.23644 1.12136,0.77461 1.4759,1.19596 0.35454,0.42135 0.77138,0.76609 0.92632,0.76609 0.15494,0 0.76944,0.4801 1.36554,1.0669 1.90996,1.88013 2.38971,2.28339 3.23649,2.72051 0.45634,0.23557 1.49586,1.16441 2.31003,2.0641 0.81417,0.89969 1.86954,1.87077 2.34527,2.15795 0.8218,0.4961 2.29301,1.71606 4.03997,3.350001 0.43656,0.40833 1.00389,0.8144 1.26074,0.9024 0.25684,0.088 0.58351,0.46646 0.72592,0.84103 0.15142,0.39826 0.64413,0.84198 1.18665,1.06866 0.51025,0.2132 0.92773,0.5036 0.92773,0.64534 0,0.14174 0.50601,0.5736 1.12448,0.95967 0.61846,0.38607 1.60073,1.10897 2.18281,1.60644 2.52234,2.1557 3.62686,2.98991 3.95871,2.98991 0.19506,0 0.60052,0.41672 0.90102,0.92604 0.30051,0.50933 0.72543,0.92605 0.94426,0.92605 0.21883,0 0.64351,0.33223 0.94373,0.7383 0.30021,0.40606 0.95862,0.96059 1.46313,1.23229 0.5045,0.27169 0.91728,0.58578 0.91728,0.69798 0,0.11219 0.73605,0.76377 1.63568,1.44794 1.31633,1.00108 1.71668,1.18612 2.05052,0.94774 0.22816,-0.16292 0.85734,-0.53597 1.39818,-0.82901 1.22383,-0.66311 1.5302,-1.22113 1.5302,-2.78712 0,-1.14851 -0.10552,-1.339 -1.54855,-2.79552 -0.8517,-0.85966 -1.68239,-1.56302 -1.84598,-1.56302 -0.16359,0 -0.49646,-0.30374 -0.73971,-0.67498 -0.24324,-0.37124 -0.77254,-0.84578 -1.17622,-1.05453 -0.40369,-0.20875 -1.13015,-0.74954 -1.61436,-1.20175 -0.48422,-0.45221 -1.32687,-1.11026 -1.87258,-1.46233 -0.5457,-0.35207 -0.99218,-0.76193 -0.99218,-0.9108 0,-0.14887 -0.52495,-0.49568 -1.16654,-0.7707 -0.66684,-0.28584 -1.24119,-0.73528 -1.34083,-1.04921 -0.0959,-0.30205 -0.43413,-0.68116 -0.7517,-0.84246 -0.31757,-0.16131 -0.87505,-0.572811 -1.23885,-0.914451 -1.83245,-1.72082 -3.766,-3.30801 -4.47911,-3.67678 -0.43828,-0.22664 -0.92905,-0.65904 -1.09059,-0.9609 -0.16155,-0.30185 -0.70086,-0.71894 -1.19847,-0.92685 -0.49761,-0.20792 -0.90475,-0.51759 -0.90475,-0.68816 0,-0.37706 -1.05388,-1.53485 -1.3971,-1.53485 -0.13559,0 -0.47513,-0.29062 -0.75453,-0.64582 -0.2794,-0.3552 -0.77279,-0.72841 -1.09642,-0.82935 -0.32362,-0.10095 -1.32156,-0.92492 -2.21765,-1.83106 -0.89608,-0.90614 -2.0867,-1.92203 -2.64583,-2.25752 -0.55912,-0.3355 -1.43331,-1.0049 -1.94263,-1.48755 -0.50933,-0.48266 -1.35496,-1.28262 -1.87919,-1.7777 -0.52423,-0.49508 -1.19819,-0.97792 -1.49769,-1.07297 -0.29949,-0.0951 -0.7349,-0.46337 -0.96757,-0.81847 -0.23267,-0.3551 -0.76647,-0.82323 -1.18622,-1.04029 -0.41975,-0.21706 -1.11927,-0.72555 -1.55448,-1.12998 -1.41974,-1.31932 -2.86843,-2.56333 -4.55368,-3.91033 -0.91031,-0.72761 -2.13822,-1.82894 -2.72869,-2.4474 -0.59047,-0.61846 -1.22271,-1.12448 -1.40499,-1.12448 -0.18228,0 -0.40741,-0.23943 -0.50029,-0.53207 -0.0929,-0.29264 -0.54739,-0.72606 -1.01002,-0.96316 -0.97641,-0.50041 -2.14301,-1.39388 -3.702617,-2.83572 -0.609,-0.56302 -1.36459,-1.19486 -1.67909,-1.4041 -0.52482,-0.34917 -0.54126,-0.43901 -0.20007,-1.09301 0.20447,-0.39191 0.37249,-0.85833 0.37338,-1.0365 8e-4,-0.17816 0.35681,-0.5076 0.7909,-0.73208 0.4341,-0.22448 0.96573,-0.74937 1.18139,-1.16642 0.21567,-0.41705 0.69243,-0.83364 1.059467,-0.92576 0.36704,-0.0921 0.86513,-0.46935 1.10686,-0.83828 0.24173,-0.36893 0.77774,-0.84569 1.19114,-1.05946 0.79272,-0.40993 2.99335,-2.19107 4.32917,-3.50392 0.43656,-0.42906 1.06294,-0.86219 1.39196,-0.96252 0.32902,-0.10033 0.77856,-0.53117 0.99898,-0.95742 0.22042,-0.42625 0.52553,-0.775 0.67802,-0.775 0.25823,0 1.16946,-0.78707 3.2637,-2.81903 0.47313,-0.45906 1.46857,-1.09635 2.21208,-1.4162 0.74351,-0.31985 1.54242,-0.87242 1.77535,-1.22791 0.23294,-0.3555 0.7018,-0.77316 1.04191,-0.92813 0.34012,-0.15497 0.76646,-0.55841 0.94742,-0.89654 0.18097,-0.33814 0.67591,-0.75847 1.09988,-0.93409 0.42397,-0.17561 0.94253,-0.65128 1.15235,-1.05703 0.20983,-0.40575 0.6157,-0.81207 0.90195,-0.90292 0.28624,-0.0909 0.79356,-0.48624 1.12738,-0.87864 0.33381,-0.39241 0.91283,-0.84994 1.28671,-1.01673 0.87273,-0.38935 4.26424,-3.18773 6.60686,-5.45142 0.56473,-0.54571 1.15573,-0.99219 1.31333,-0.99219 0.38097,0 3.17399,-2.781972 3.17399,-3.161432 0,-0.16333 0.55597,-0.53528 1.23548,-0.82655 1.23865,-0.53094 2.37097,-1.37105 4.34262,-3.22192 0.58131,-0.5457 1.15963,-0.99218 1.28516,-0.99218 0.12552,0 0.47409,-0.41672 0.7746,-0.92605 0.34357,-0.58231 0.74889,-0.92604 1.09198,-0.92604 0.30009,0 0.92918,-0.35356 1.39799,-0.785693 2.10948,-1.94446 3.31286,-2.889908 4.33887,-3.408879 0.60788,-0.307478 1.18287,-0.803638 1.27775,-1.102579 0.0949,-0.298941 0.63932,-0.838212 1.20986,-1.198382 0.57055,-0.360168 1.03735,-0.769363 1.03735,-0.909322 0,-0.139958 0.36334,-0.442355 0.8074,-0.671993 1.42976,-0.739354 1.49208,-2.245422 0.1585,-3.830293 -0.35933,-0.427038 -0.84661,-1.358339 -1.08284,-2.069559 -0.69806,-2.1016731 -1.32993,-2.5082411 -4.19126,-2.6968321 -1.34127,-0.0884 -30.97136,-0.153257 -65.844647,-0.14412 -61.56818,0.01613 -63.42184,0.03096 -63.95316,0.511721 -0.51401,0.465095 -0.52322,0.552446 -0.15198,1.440967 0.58267,1.3945151 1.63792,2.6680311 2.36118,2.8495581 0.3496,0.08774 0.82284,0.445235 1.05163,0.794425 0.2288,0.34919 0.80062,0.800671 1.2707,1.003292 0.47009,0.202621 1.58199,1.084076 2.47089,1.95879 0.8889,0.874714 2.11498,1.905263 2.72462,2.29011 0.60964,0.384847 1.17696,0.878303 1.26071,1.096569 0.0838,0.218266 0.61385,0.632321 1.17799,0.920121 0.56413,0.287801 1.0257,0.637496 1.0257,0.777102 0,0.139606 0.48101,0.499223 1.06892,0.799149 0.5879,0.299926 1.19689,0.826215 1.35332,1.169531 0.15643,0.343316 0.7579,0.837727 1.33662,1.098687 0.57871,0.26097 1.6637,1.16368 2.41107,2.00604 0.74738,0.84235 1.85559,1.79506 2.4627,2.11713 0.6071,0.32207 1.3011,0.91955 1.54222,1.32773 0.24112,0.40818 0.54064,0.74215 0.6656,0.74215 0.12495,0 0.56471,0.36431 0.97722,0.80958 0.41252,0.44527 1.11082,0.96404 1.55178,1.15283 0.44096,0.188782 1.17999,0.687682 1.64228,1.108652 1.71917,1.5655 2.99516,2.54999 3.90861,3.0157 0.51683,0.2635 1.26345,0.79123 1.65916,1.17274 2.61995,2.52598 3.17041,3.00542 3.63683,3.16759 0.28722,0.0999 1.1147,0.90111 1.83885,1.78057 0.72415,0.87945 1.67665,1.78511 2.11667,2.01258 0.44001,0.22746 1.21674,0.74489 1.72607,1.14983 0.50932,0.40494 1.23852,0.81242 1.62044,0.90553 0.38193,0.0931 0.82599,0.45804 0.9868,0.81098 0.16081,0.35295 0.64732,0.85757 1.08114,1.12139 0.43382,0.26382 1.0402,0.79933 1.34751,1.19002 0.30732,0.39069 0.71813,0.71034 0.91291,0.71034 0.19479,0 0.67966,0.38685 1.07751,0.85966 0.39784,0.47281 1.08692,1.08075 1.53127,1.35098 0.44435,0.27023 1.17123,0.81985 1.61527,1.22138 2.57442,2.32795 3.24732,2.86717 3.78682,3.03451 0.32902,0.10206 0.77766,0.53258 0.997,0.95672 0.21933,0.42415 0.69843,0.84638 1.06467,0.9383 0.36623,0.0919 0.84337,0.51036 1.06031,0.92987 0.21694,0.41951 0.51197,0.76275 0.65563,0.76275 0.30586,0 1.88319,1.39159 3.88961,3.4316 1.29962,1.32138 1.38312,1.47668 0.96018,1.78594 -0.25477,0.18629 -0.588,0.33871 -0.74052,0.33871 -0.15252,0 -0.57624,0.30068 -0.94162,0.66817 -0.36537,0.36749 -1.18702,1.00824 -1.8259,1.4239 -0.63887,0.41566 -1.98777,1.51397 -2.99756,2.44069 -3.47134,3.1858 -3.71343,3.39046 -4.18903,3.54141 -0.26232,0.0833 -0.71969,0.56282 -1.01639,1.06569 -0.2967,0.50287 -0.70839,0.91431 -0.91486,0.91431 -0.532,0 -3.29374,2.32701 -3.48795,2.93891 -0.089,0.28031 -0.54939,0.67162 -1.02316,0.86958 -0.75124,0.31389 -2.28371,1.48836 -4.33097,3.3192 -0.33037,0.29545 -0.94701,0.71628 -1.37031,0.93518 -0.4233,0.21889 -0.84664,0.64059 -0.94074,0.93711 -0.0941,0.29651 -0.48951,0.73492 -0.87865,0.97424 -0.81762,0.50283 -1.58493,1.1592 -3.14112,2.68696 -0.61086,0.59971 -1.59466,1.28404 -2.18622,1.52073 -0.59156,0.2367 -1.32208,0.77655 -1.62337,1.19968 -0.30129,0.42312 -0.95627,0.93999 -1.45551,1.14858 -0.49925,0.2086 -0.98,0.56764 -1.06835,0.79788 -0.0883,0.23023 -0.48663,0.58718 -0.88506,0.79322 -0.39843,0.20603 -0.86783,0.72083 -1.04311,1.144 -0.22435,0.54163 -0.61021,0.85673 -1.30345,1.06443 -1.02922,0.30837 -1.56809,0.72169 -2.70823,2.07729 -0.37618,0.44726 -1.26878,1.25961 -1.98355,1.805211 -0.71478,0.5456 -1.45666,1.21625 -1.64863,1.49032 -0.19197,0.27407 -0.78765,0.72518 -1.32374,1.00245 -0.53608,0.27728 -1.18189,0.75193 -1.43513,1.05479 -0.25324,0.30286 -0.63663,0.55066 -0.85198,0.55066 -0.21534,0 -0.66299,0.36879 -0.99477,0.81953 -0.33178,0.45075 -0.90089,0.97761 -1.26469,1.1708 -0.36381,0.1932 -1.50921,1.17776 -2.54534,2.18792 -1.03613,1.01016 -2.25956,2.05858 -2.71872,2.32982 -0.48206,0.28476 -1.10735,1.03999 -1.47969,1.78717 -0.60744,1.21897 -0.62198,1.3497 -0.25075,2.25408 0.7178,1.7487 1.26135,2.27111 2.52296,2.42482 1.25287,0.15265 2.45363,-0.25414 2.70817,-0.91745 z m 53.75399,-58.238751 c -0.87313,-0.94733 -1.89987,-1.89293 -2.28166,-2.10134 -0.38178,-0.20841 -1.21522,-0.86501 -1.85208,-1.4591 -0.63686,-0.59409 -1.42997,-1.14854 -1.76248,-1.23213 -0.3325,-0.0836 -0.77337,-0.47843 -0.97971,-0.87744 -0.20633,-0.39902 -0.734,-0.87412 -1.17259,-1.05579 -0.43858,-0.18167 -0.86541,-0.5445 -0.94849,-0.80628 -0.0831,-0.26179 -0.61451,-0.66141 -1.18094,-0.88805 -0.56643,-0.22664 -1.12901,-0.58922 -1.25018,-0.80574 -0.46367,-0.82853 -5.74797,-5.19515 -6.53286,-5.39834 -0.45612,-0.11808 -0.96261,-0.49017 -1.13374,-0.8329 -0.42018,-0.84152 -2.4209,-2.65056 -3.39485,-3.06961 -0.43657,-0.18783 -1.4486,-1.01501 -2.24896,-1.83817 -0.80037,-0.82316 -1.99099,-1.86849 -2.64583,-2.32295 -0.65485,-0.45446 -1.56187,-1.21809 -2.01562,-1.69695 -0.45375,-0.47886 -0.95228,-0.87066 -1.10785,-0.87066 -0.29085,0 -1.1788,-0.737542 -2.90305,-2.411322 -0.54172,-0.52586 -1.34213,-1.13895 -1.77869,-1.36241 -0.43657,-0.22346 -1.58845,-1.13499 -2.55975,-2.02562 -0.9713,-0.89063 -2.18303,-1.79356 -2.69272,-2.00653 -0.5097,-0.21297 -0.99721,-0.60929 -1.08336,-0.88072 -0.0862,-0.27143 -0.48177,-0.64035 -0.87915,-0.819832 -0.39739,-0.179478 -1.07971,-0.680397 -1.51627,-1.113153 -1.74677,-1.731535 -3.35118,-3.138745 -3.57861,-3.138745 -0.1321,0 -0.84345,-0.535781 -1.58077,-1.190625 -0.73732,-0.654844 -1.51775,-1.190625 -1.73429,-1.190625 -0.21655,0 -0.53341,-0.306586 -0.70414,-0.681301 -0.17073,-0.374716 -0.67157,-0.868061 -1.11299,-1.096324 l -0.80256,-0.415022 0.65564,-0.268338 c 0.79141,-0.323905 111.046217,-0.251967 111.626607,0.07283 0.2874,0.160837 0.18252,0.311567 -0.44123,0.634119 -0.45003,0.232722 -1.06885,0.775073 -1.37514,1.205225 -0.3063,0.430152 -0.76217,0.849183 -1.01305,0.931179 -0.25088,0.082 -0.72513,0.565289 -1.05389,1.073982 -0.32876,0.508692 -0.80993,0.924896 -1.06926,0.924896 -0.25933,0 -0.88331,0.361892 -1.38663,0.804205 -2.51082,2.20651 -4.07332,3.429128 -4.3824,3.429128 -0.18823,0 -0.66009,0.416721 -1.04857,0.926041 -0.38848,0.50933 -0.86723,0.92605 -1.06388,0.92605 -0.19665,0 -0.629,0.36777 -0.96078,0.81727 -0.33178,0.4495 -0.96042,0.97106 -1.39699,1.15901 -0.81726,0.35186 -3.2344,2.24244 -4.92987,3.85594 -1.13651,1.08155 -1.89529,1.666622 -3.10202,2.391842 -0.48847,0.29357 -0.95008,0.77063 -1.02579,1.06013 -0.0757,0.2895 -0.53898,0.69405 -1.02949,0.89901 -0.49052,0.20495 -1.02569,0.66639 -1.18928,1.02541 -0.16358,0.35904 -0.51801,0.71047 -0.78761,0.78097 -0.2696,0.0705 -0.73471,0.54264 -1.03359,1.04919 -0.35419,0.60031 -0.80642,0.97361 -1.29878,1.07208 -0.41545,0.0831 -1.30184,0.62404 -1.96975,1.2021 -0.6679,0.57807 -1.457,1.12804 -1.75356,1.22217 -0.29655,0.0941 -0.71953,0.51988 -0.93995,0.94613 -0.22042,0.42625 -0.58221,0.775 -0.80396,0.775 -0.22176,0 -0.83228,0.41672 -1.35671,0.92604 -0.52444,0.50932 -1.04971,0.92604 -1.16729,0.92604 -0.11757,0 -0.66928,0.44648 -1.22602,0.99219 -1.37983,1.35248 -2.3442,2.14233 -3.89049,3.18645 -0.72072,0.48667 -1.52265,1.23385 -1.78205,1.6604 -0.2594,0.42655 -0.62717,0.77554 -0.81727,0.77554 -0.19011,0 -0.78744,0.41672 -1.32742,0.92605 -0.539977,0.50932 -1.097507,0.92604 -1.238957,0.92604 -0.14144,0 -0.4352,0.34428 -0.6528,0.76506 -0.2176,0.42079 -0.72667,0.88345 -1.13128,1.02814 -0.4046,0.1447 -1.52822,1.04931 -2.49694,2.01025 -1.89891,1.88366 -2.62842,2.28464 -4.1429,2.27714 -0.85863,-0.004 -1.16438,-0.21034 -2.56246,-1.72723 z m -24.40781,14.08327 c 0.5457,-0.22988 0.99219,-0.52761 0.99219,-0.66162 0,-0.13402 0.73564,-0.38839 1.63476,-0.56528 1.18179,-0.23251 1.82346,-0.52363 2.31579,-1.05067 0.43109,-0.46149 1.19542,-0.85245 2.08268,-1.06529 1.59411,-0.38243 2.00014,-0.84294 2.42595,-2.75152 0.15753,-0.70608 0.4664,-1.63184 0.68639,-2.05726 0.35855,-0.69335 0.35713,-0.83444 -0.0137,-1.36205 -0.22754,-0.32371 -0.53731,-1.04584 -0.68839,-1.60474 -0.37542,-1.38883 -2.1678,-3.28979 -3.30265,-3.50269 -0.48942,-0.0918 -1.20421,-0.43705 -1.58842,-0.7672 -0.98547,-0.84679 -2.29189,-1.17581 -5.7227,-1.44125 -2.07354,-0.16043 -3.35373,-0.39966 -4.17968,-0.78106 -1.0044,-0.4638 -1.71508,-0.55071 -4.54376,-0.55561 -3.19484,-0.006 -3.39025,0.0254 -4.13924,0.65565 -0.73205,0.61598 -0.98208,0.66146 -3.63665,0.66146 -3.60283,0 -6.01426,0.40913 -6.94389,1.17813 -0.39188,0.32416 -1.10457,0.72307 -1.58376,0.88645 -0.4792,0.16339 -1.60084,1.02664 -2.49254,1.91834 l -1.62128,1.62128 -0.12091,2.08867 c -0.13575,2.34493 0.17512,3.43388 1.12546,3.94249 0.33813,0.18096 0.74295,0.61031 0.89959,0.9541 0.15664,0.34379 0.71253,0.8038 1.23531,1.02223 0.52279,0.21843 1.24964,0.63244 1.61525,0.92002 0.3656,0.28759 1.34091,0.71771 2.16735,0.95583 0.82644,0.23812 1.75417,0.66625 2.06163,0.95139 0.80141,0.74325 4.27438,0.98186 13.06702,0.89775 5.9204,-0.0566 7.46091,-0.14746 8.26823,-0.48755 z m -15.80886,-6.18839 c -4.45597,-0.30548 -4.97127,-0.39719 -5.52685,-0.98361 -0.30721,-0.32428 -0.94552,-0.81449 -1.41846,-1.08937 -0.47294,-0.27487 -0.85989,-0.57872 -0.85989,-0.67521 0,-0.0965 0.38695,-0.32171 0.85989,-0.5005 0.47294,-0.17878 1.43742,-0.6239 2.14329,-0.98914 1.1495,-0.5948 1.6902,-0.6785 5.18302,-0.8023 2.6162,-0.0927 4.06601,-0.0416 4.40516,0.15525 0.41798,0.24265 0.43077,0.29486 0.0739,0.30151 -0.71194,0.0133 -2.05589,1.61235 -2.41097,2.86865 -0.39165,1.38569 -1.00318,1.81385 -2.44908,1.71472 z m 11.99302,-0.26493 c -0.60215,-0.0922 -0.73175,-0.27266 -0.87406,-1.21713 -0.3328,-2.20882 -0.45428,-2.56978 -0.99149,-2.94606 -0.53806,-0.37687 -0.53532,-0.38536 0.18235,-0.56548 1.24441,-0.31233 4.50496,0.0645 5.60632,0.64796 0.55946,0.29637 1.5823,0.75289 2.27298,1.01448 0.69067,0.2616 1.25622,0.541 1.25677,0.62091 5.3e-4,0.0799 -0.41577,0.29599 -0.92515,0.48018 -0.50937,0.18419 -1.26514,0.62016 -1.67949,0.96881 -1.09692,0.92299 -2.90294,1.29414 -4.84823,0.99633 z m 76.500587,6.78521 c 0.94064,-0.15262 2.13127,-0.50188 2.64583,-0.77614 0.51455,-0.27425 1.64993,-0.69418 2.52306,-0.93315 0.87312,-0.23898 1.88515,-0.7079 2.24896,-1.04204 0.3638,-0.33414 1.10199,-0.74822 1.64042,-0.92018 1.11977,-0.35763 2.50627,-1.80073 2.7525,-2.86489 0.092,-0.39751 0.41152,-1.22688 0.71008,-1.84303 0.48034,-0.99127 0.4984,-1.17409 0.15686,-1.5875 -0.21229,-0.25697 -0.58515,-0.90832 -0.82857,-1.44745 -0.24673,-0.54647 -0.79476,-1.16235 -1.23847,-1.3918 -0.43774,-0.22636 -0.92246,-0.64807 -1.07716,-0.93713 -0.1547,-0.28906 -0.77029,-0.77504 -1.36797,-1.07996 -0.59769,-0.30492 -1.32349,-0.77499 -1.6129,-1.04461 -0.59754,-0.5567 -2.5902,-1.04856 -4.24799,-1.04856 -2.07453,0 -5.5526,-0.5535 -6.66641,-1.06091 -0.83032,-0.37825 -1.79254,-0.51571 -3.8576,-0.5511 -2.45117,-0.042 -2.93363,0.0301 -4.42226,0.66077 -1.37719,0.58347 -2.2144,0.73348 -4.7625,0.85332 -3.47259,0.16332 -4.50212,0.40104 -5.54794,1.28103 -0.39771,0.33466 -1.15712,0.78981 -1.68757,1.01145 -0.53045,0.22163 -1.04412,0.65398 -1.14149,0.96078 -0.0974,0.3068 -0.56459,0.71974 -1.03825,0.91765 -0.84799,0.35432 -0.99908,0.60517 -1.72094,2.8574 -0.25785,0.80452 -0.23494,1.24882 0.12965,2.51354 0.598,2.07438 1.266,2.93883 2.86393,3.70621 0.74078,0.35574 1.74254,0.92979 2.22615,1.27566 0.4836,0.34586 1.41477,0.70914 2.06926,0.80729 0.65486,0.0982 1.52971,0.46431 1.94545,0.81413 0.48745,0.41017 1.30211,0.71559 2.29636,0.86092 2.24088,0.32757 15.00328,0.3338 17.00951,0.008 z m -15.86549,-6.64692 c -1.84967,-0.1772 -2.68824,-0.37984 -3.175,-0.76722 -0.3638,-0.28953 -1.22419,-0.78982 -1.91199,-1.11175 -0.68779,-0.32194 -1.25334,-0.65569 -1.25677,-0.74168 -0.003,-0.086 0.67473,-0.30872 1.50703,-0.49499 0.8323,-0.18625 1.8741,-0.48731 2.31511,-0.669 2.40248,-0.98981 5.09306,-1.41497 6.85851,-1.08377 0.86838,0.16291 0.93234,0.23186 0.66994,0.72215 -0.15955,0.29813 -0.25003,1.25453 -0.20107,2.12532 0.0745,1.32476 0.005,1.64463 -0.42456,1.95902 -0.56218,0.41129 -0.71239,0.41341 -4.3812,0.0619 z m 13.49311,-0.0573 c -0.14517,-0.14516 -0.26394,-1.10928 -0.26394,-2.14248 0,-1.0332 -0.12778,-2.00632 -0.28396,-2.1625 -0.37355,-0.37355 0.8053,-0.68271 1.80531,-0.47344 1.84262,0.38559 3.15237,0.77069 3.63802,1.06967 0.29105,0.17917 1.21378,0.475 2.05052,0.65739 1.62953,0.35521 1.90206,0.62368 0.89078,0.87749 -0.34681,0.0871 -1.01556,0.51789 -1.48609,0.95743 -0.98803,0.92297 -1.30555,1.02369 -4.05494,1.28631 -1.26596,0.12093 -2.13124,0.0946 -2.2957,-0.0699 z"
       id="path24" />
  </g>
</svg>
